PathFileType	4	(X/Y/Z)	T1_P1_Vision_NoMovement_2_0-682.trc
DataRate	CameraRate	NumFrames	NumMarkers	Units	OrigDataRate	OrigDataStartFrame	OrigNumFrames
60	60	4	27	m	60	85	682
Frame#	Time	RHip			RKnee			RAnkle			RBigToe			RSmallToe			RHeel			LHip			LKnee			LAnkle			LBigToe			LSmallToe			LHeel			Neck			Head			Nose			RShoulder			RElbow			RWrist			RThumb			RIndex			RPinky			LShoulder			LElbow			LWrist			LThumb			LIndex			LPinky		
		X1	Y1	Z1	X2	Y2	Z2	X3	Y3	Z3	X4	Y4	Z4	X5	Y5	Z5	X6	Y6	Z6	X7	Y7	Z7	X8	Y8	Z8	X9	Y9	Z9	X10	Y10	Z10	X11	Y11	Z11	X12	Y12	Z12	X13	Y13	Z13	X14	Y14	Z14	X15	Y15	Z15	X16	Y16	Z16	X17	Y17	Z17	X18	Y18	Z18	X19	Y19	Z19	X20	Y20	Z20	X21	Y21	Z21	X22	Y22	Z22	X23	Y23	Z23	X24	Y24	Z24	X25	Y25	Z25	X26	Y26	Z26	X27	Y27	Z27
86	1.4333333333333331	-53.48682767717777	3750.697309798506	-550.0954123288745	297.83432821097404	3824.413219865721	-497.7357787841108	637.3249111589029	4148.521190370688	-520.116220770502	691.6126500920421	4000.413844682134	-441.21974353869064	687.2643135478451	3964.6770352584135	-488.4750390071954	673.8055030260546	4199.033141086475	-533.4496130100848	-95.65451729032219	3856.762245636644	-343.8857217088137	251.25722897658505	3935.209218094425	-352.6601297612354	620.8575950451032	4240.170798584116	-465.0598815502663	661.0436964726985	3961.30428826554	-353.2905368102389	671.2908375161576	4110.200330889081	-344.1376290993615	675.8046779053959	4324.23070515794	-501.02004718413554	-653.7038348544284	3662.0434481557977	-521.2625216742626	-886.5286292649716	3460.6203735606696	-444.50304955260594	-757.6644340543388	3520.325189456669	-411.3131021890084	-548.3538537980631	3633.290605288101	-671.121246167094	-267.5633035487885	3615.022665963421	-677.3097630125985	-2.813910941552964	3652.8975852983267	-636.8819348367153	100.04271806957709	3667.5672187914224	-544.2084960210419	126.800142591667	3639.8716703934347	-541.8387130550099	122.58976584383882	3617.3068313108984	-589.7478868084826	-605.8169837524314	3732.410391710112	-365.5663308920302	-378.4070082609511	3896.0882925342094	-330.4785191865907	-127.50007942529582	3840.8161518628613	-199.55391270140922	5.802957077660054	3788.929736479394	-201.0878294968348	23.408936146628534	3826.5318540843145	-184.03098832031353	6.651405834853303	3957.311555514705	-197.41552207393147
87	1.45	-55.26992767030625	3750.1725317198284	-549.9934414417852	297.1982410298758	3824.390010995039	-497.98681785503334	636.0217809072465	4142.161022531237	-516.193131911223	689.1911556138843	3993.7188153474876	-438.20413399885024	686.6973185360588	3963.0574898703776	-486.997903812668	673.4857312052259	4197.576941041759	-533.0313062735776	-95.68030381012174	3856.734402042068	-343.830369582047	248.70606411964573	3929.193667046917	-351.58799125511496	621.6631094106248	4247.424386543442	-468.75489253273105	660.0955791499698	3961.5022100809288	-352.72799301209704	670.4812393594323	4115.224045193948	-345.25263777134217	674.8454689540011	4325.100232379865	-502.150644635569	-653.6255175966932	3662.0875190116244	-521.2572221235374	-886.8718570202786	3462.018476944688	-445.60544819768893	-760.0251731476776	3523.770146246662	-412.15008126082694	-548.6834766135266	3636.001829023859	-672.0215640602758	-267.4369590344936	3615.042439489055	-677.2878777000002	-2.865549365501058	3652.5092349477604	-636.5534393757644	99.8800583971196	3663.389679320339	-543.2787569963277	126.81780046508442	3640.1146411717964	-542.0161324104763	122.18844605534571	3618.1454653314468	-590.6379331135872	-605.739234440671	3732.428591279373	-365.48242509899893	-378.9601803330141	3895.769252403029	-330.44582178970995	-127.14509993589104	3841.168758517953	-199.68258291066746	6.54538177867545	3789.4310339020685	-201.32906852980565	21.711367659644015	3829.231102855242	-184.6339362301014	6.662340063601637	3957.4801117157617	-197.36302399002494
88	1.4666666666666666	-56.50333916729935	3749.6293283602017	-549.662242359711	296.98291442497293	3826.577373439458	-499.48470690222996	635.5910832447412	4138.765845568589	-515.4016764115743	687.1056008096105	3990.226486356605	-436.11771727861725	686.1519316164413	3960.171102546832	-485.72153418355174	673.213935948973	4194.71157349118	-532.7097048135923	-95.68941277708802	3856.732165614564	-343.78258254515293	244.14037655385704	3919.799487978234	-350.6947890220401	622.3370584694252	4249.91778546056	-471.2530890904898	659.5531924064603	3962.4136215680396	-352.67942957380586	669.769642555012	4117.721285212602	-345.92833128529725	673.8679254226276	4324.725765258206	-501.81873272935286	-653.093673939425	3662.2474926885034	-521.2377456581802	-886.6618899839823	3460.737538186831	-444.5600625883558	-761.1940877633147	3525.4793390354935	-412.4632532404255	-547.5216271117407	3633.413216663407	-671.3483362083919	-267.50711804874595	3615.0143765515018	-676.081237098583	-2.8803827624665037	3652.2547154180897	-636.3305710824833	99.74388886154712	3660.6390204146282	-542.645531674159	126.79913505357268	3640.3295296895044	-542.0920651293391	122.35143229605029	3620.5991808024	-592.4689310034641	-605.1130558379564	3732.5092107831033	-364.95482021572514	-379.7374500555102	3895.045038220649	-330.3558559156947	-127.71438776307072	3840.6980707710245	-199.54230748689724	6.6150678949520785	3789.6497431459857	-201.8187041504824	20.27709133253	3829.7636982900754	-184.85297114780948	6.440570536092955	3957.3382627125616	-197.23065331685933
89	1.4833333333333334	-56.41756774719156	3749.8197192960433	-549.6214164930183	297.1093613121817	3829.2553349481277	-501.44125044712393	635.9925695349484	4139.113821438389	-517.9928980394657	684.8454994271863	3986.9816289524283	-434.5904443430787	685.5474929501997	3955.6249552871695	-485.054911476087	673.5597618746023	4192.277753816477	-533.3604068762719	-95.6782375372286	3856.804774578737	-343.7888094079153	239.39578530228457	3908.4429770734423	-349.5880589195476	622.7008378916056	4247.433854444851	-470.5146301231817	659.4767561353596	3963.140978256545	-352.44087123026276	669.4962609418225	4116.1419776714665	-345.6101951507514	672.9081670728681	4322.988790388471	-499.435078176087	-651.8033920240509	3662.615597573874	-521.1826127686935	-885.7800506181858	3456.3278362573074	-441.0505447953671	-760.597570940095	3525.848914311861	-412.3298998554819	-545.9319713152252	3625.6521890336358	-669.1317602128571	-268.0201660133535	3614.912613957229	-675.255118523654	-2.837918405365113	3652.2233138289066	-636.2817190960021	99.69011650843771	3659.9265423801958	-542.4689384336423	126.7562187446699	3639.8401108145194	-541.8253617634563	122.57972363571454	3622.2566230516964	-593.6931841232787	-603.8302102279125	3732.680581538367	-363.89141771140663	-380.09117538345663	3894.2230765902314	-330.2330520383407	-128.67324526023756	3839.621547371981	-199.24374566472733	6.599217727032931	3789.9051758410396	-202.6785169452088	19.55242884571173	3829.2234796675702	-184.819250601379	5.7830580281639286	3957.0639947596464	-197.35966199209227
